<svg width="429" height="76" viewBox="0 0 429 76" fill="none" xmlns="http://www.w3.org/2000/svg">
<path d="M326.941 56.9919C324.457 46.2144 309.974 40.8238 306.583 36.9069C304.839 34.8931 305.276 32.7538 306.365 31.6025C307.535 30.3688 309.764 30.125 311.427 31.2106C312.882 32.1575 315.714 34.7844 316.349 35.7538C316.985 36.7213 316.977 37.5219 317.319 38.1725C317.707 38.9038 318.584 39.2938 319.856 38.9131C321.033 38.5625 321.684 38.0975 321.684 38.0975C321.684 38.0975 320.454 38.0506 319.966 37.3588C319.966 37.3588 318.26 33.6181 317.649 32.0881C319.604 32.6075 320.846 33.2075 321.714 33.755C321.821 34.5875 321.466 36.0219 321.451 36.0856C321.491 36.0631 322.123 35.69 323.062 34.7544C323.109 34.7938 323.156 34.8313 323.201 34.8669C323.533 35.1313 322.921 37.2219 322.921 37.2219C322.921 37.2219 324.069 36.4513 324.946 35.4088C325.706 34.5106 326.345 33.3706 326.345 33.3706C326.345 33.3706 323.861 32.3206 322.715 30.5019C321.566 28.685 322.567 26.7125 322.567 26.7125C322.567 26.7125 320.651 26.0975 319.046 23.7838C317.358 21.35 318.011 18.3594 318.011 18.3594C316.638 18.9106 315.434 21.6406 315.434 21.6406C315.434 21.6406 311.967 19.79 307.464 20.3656C303.401 20.3544 299.624 17.8906 298.057 14C298.057 14 296.844 19.3231 301.439 22.6738C301.19 22.8425 300.941 23.0206 300.691 23.2119C298.449 24.4888 295.601 24.4138 293.407 22.8763C293.407 22.8763 293.523 23.675 293.951 24.635C294.378 25.5931 295.115 26.7144 296.358 27.3594C296.491 27.4288 296.622 27.485 296.752 27.5338C296.493 27.9463 296.253 28.3738 296.038 28.8125C294.813 30.8675 292.355 31.9063 290 31.2913C290 31.2913 291.236 33.5469 293.452 33.8225C293.964 33.8863 294.41 33.8094 294.792 33.6575C294.774 34.5913 294.821 35.465 294.926 36.2938C294.869 38.1088 293.645 39.7194 291.86 40.2294H291.858C291.858 40.2294 293.579 41.2531 295.173 40.5631C295.484 40.4281 295.724 40.2444 295.91 40.04C297.219 43.2013 299.593 45.7513 302.619 48.6594C303.431 49.4413 304.342 50.2775 305.266 51.1494C314.36 51.6744 321.245 55.745 327.076 62C327.26 60.6425 327.395 58.9588 326.941 56.9919ZM317.358 26.8081L319.931 29.3675L315.824 27.8863L317.358 26.8081ZM323.563 38.6557C323.563 38.6557 324.82 39.9374 326.564 40.1923C326.446 40.8894 326.268 41.237 326.268 41.237C326.268 41.237 329.261 43.6464 332.926 42.0943C332.757 44.021 330.368 44.8711 330.368 44.8711C330.368 44.8711 332.934 48.0513 338 46.1C335.252 49.6766 331.149 48.6798 328.653 47.402C326.411 46.2536 323.523 42.8613 323.563 38.6557Z" fill="white"/>
<path d="M355.352 62C351.128 62 348.013 60.9973 346.008 58.992C344.003 56.9867 343 53.8933 343 49.712V34.928H339.864C338.072 34.928 337.176 34.032 337.176 32.24C337.176 30.448 338.072 29.552 339.864 29.552H343V24.88C343 23.088 343.896 22.192 345.688 22.192C347.48 22.192 348.376 23.088 348.376 24.88V29.552H355.736C357.528 29.552 358.424 30.448 358.424 32.24C358.424 34.032 357.528 34.928 355.736 34.928H348.376V49.712C348.376 52.4213 348.867 54.256 349.848 55.216C350.829 56.1547 352.664 56.624 355.352 56.624C356.184 56.624 356.835 56.8373 357.304 57.264C357.795 57.6907 358.04 58.3733 358.04 59.312C358.04 61.104 357.144 62 355.352 62ZM371.157 62C369.365 62 368.469 61.104 368.469 59.312V32.24C368.469 30.448 369.365 29.552 371.157 29.552C372.949 29.552 373.845 30.448 373.845 32.24V34.736C375.103 33.0293 376.703 31.7387 378.645 30.864C380.607 29.9893 382.847 29.552 385.365 29.552C387.157 29.552 388.053 30.448 388.053 32.24C388.053 34.032 387.157 34.928 385.365 34.928C381.674 34.928 378.858 35.6107 376.917 36.976C374.975 38.3413 373.951 40.144 373.845 42.384V59.312C373.845 61.104 372.949 62 371.157 62ZM403.828 62C400.244 62 397.577 61.1253 395.828 59.376C394.078 57.6267 393.204 54.96 393.204 51.376C393.204 47.792 394.068 45.1253 395.796 43.376C397.545 41.6267 400.222 40.752 403.828 40.752H417.364C417.236 38.512 416.649 36.9867 415.604 36.176C414.558 35.344 412.766 34.928 410.228 34.928H406.516C404.382 34.928 402.793 35.0773 401.748 35.376C400.702 35.6533 399.966 36.1653 399.54 36.912C399.156 37.808 398.761 38.4267 398.356 38.768C397.95 39.1093 397.342 39.28 396.532 39.28C395.636 39.28 394.932 39.0347 394.42 38.544C393.908 38.032 393.758 37.36 393.972 36.528C394.612 34.1173 395.945 32.3573 397.972 31.248C400.02 30.1173 402.868 29.552 406.516 29.552H410.228C414.494 29.552 417.652 30.576 419.7 32.624C421.748 34.672 422.772 37.8293 422.772 42.096V59.312C422.772 61.104 421.876 62 420.083 62C418.292 62 417.396 61.104 417.396 59.312V57.872C415.113 60.624 411.785 62 407.412 62H403.828ZM403.828 56.624H407.412C408.99 56.624 410.473 56.4853 411.86 56.208C413.246 55.9093 414.43 55.376 415.412 54.608C416.414 53.84 417.076 52.7413 417.396 51.312V46.128H403.828C401.716 46.128 400.308 46.48 399.604 47.184C398.921 47.888 398.58 49.2853 398.58 51.376C398.58 53.488 398.921 54.896 399.604 55.6C400.308 56.2827 401.716 56.624 403.828 56.624Z" fill="white"/>
<path d="M9.344 62C7.552 62 6.656 61.104 6.656 59.312V21.296C6.656 19.504 7.552 18.608 9.344 18.608H32.896C33.728 18.608 34.3787 18.8533 34.848 19.344C35.3387 19.8133 35.584 20.464 35.584 21.296C35.584 23.088 34.688 23.984 32.896 23.984H12.032V37.424H24.896C26.688 37.424 27.584 38.32 27.584 40.112C27.584 41.904 26.688 42.8 24.896 42.8H12.032V59.312C12.032 61.104 11.136 62 9.344 62ZM44.0105 24.304C41.9838 24.304 40.9705 23.28 40.9705 21.232V19.344C40.9705 17.3387 41.9838 16.336 44.0105 16.336H45.8665C47.8078 16.336 48.7785 17.3387 48.7785 19.344V21.232C48.7785 23.28 47.8078 24.304 45.8665 24.304H44.0105ZM44.9065 62C43.1145 62 42.2185 61.104 42.2185 59.312V32.24C42.2185 30.448 43.1145 29.552 44.9065 29.552C46.6985 29.552 47.5945 30.448 47.5945 32.24V59.312C47.5945 61.104 46.6985 62 44.9065 62ZM71.914 62C67.6687 62 64.5113 60.976 62.442 58.928C60.394 56.8587 59.37 53.7013 59.37 49.456V42.032C59.37 37.7653 60.3833 34.608 62.41 32.56C64.458 30.512 67.626 29.5093 71.914 29.552H77.162C80.3407 29.552 82.8367 30.0853 84.65 31.152C86.4847 32.2187 87.658 33.8613 88.17 36.08C88.362 36.976 88.202 37.6693 87.69 38.16C87.1993 38.6507 86.4847 38.896 85.546 38.896C84.714 38.896 84.106 38.6827 83.722 38.256C83.338 37.8293 82.986 37.232 82.666 36.464C82.346 35.888 81.7593 35.4933 80.906 35.28C80.0527 35.0453 78.8047 34.928 77.162 34.928H71.914C69.162 34.8853 67.274 35.3653 66.25 36.368C65.2473 37.3493 64.746 39.2373 64.746 42.032V49.456C64.746 52.2293 65.2473 54.1173 66.25 55.12C67.274 56.1227 69.162 56.624 71.914 56.624H77.162C78.8047 56.624 80.0527 56.5173 80.906 56.304C81.7593 56.0693 82.346 55.664 82.666 55.088C82.986 54.2773 83.338 53.6693 83.722 53.264C84.1273 52.8587 84.7567 52.656 85.61 52.656C86.506 52.656 87.1993 52.9013 87.69 53.392C88.202 53.8827 88.362 54.576 88.17 55.472C87.658 57.6693 86.4847 59.312 84.65 60.4C82.8367 61.4667 80.3407 62 77.162 62H71.914ZM102.032 62C100.24 62 99.3435 61.104 99.3435 59.312V19.632C99.3435 17.84 100.24 16.944 102.032 16.944C103.824 16.944 104.72 17.84 104.72 19.632V33.296C106.981 30.8 110.309 29.552 114.704 29.552H116.496C120.762 29.552 123.92 30.576 125.968 32.624C128.016 34.672 129.04 37.8293 129.04 42.096V59.312C129.04 61.104 128.144 62 126.352 62C124.56 62 123.664 61.104 123.664 59.312V42.096C123.664 39.3013 123.152 37.4133 122.128 36.432C121.125 35.4293 119.248 34.928 116.496 34.928H114.704C112.144 34.928 109.914 35.2267 108.016 35.824C106.117 36.4 105.018 37.3173 104.72 38.576V59.312C104.72 61.104 103.824 62 102.032 62ZM150.453 62C146.869 62 144.202 61.1253 142.453 59.376C140.703 57.6267 139.829 54.96 139.829 51.376C139.829 47.792 140.693 45.1253 142.421 43.376C144.17 41.6267 146.847 40.752 150.453 40.752H163.989C163.861 38.512 163.274 36.9867 162.229 36.176C161.183 35.344 159.391 34.928 156.853 34.928H153.141C151.007 34.928 149.418 35.0773 148.373 35.376C147.327 35.6533 146.591 36.1653 146.165 36.912C145.781 37.808 145.386 38.4267 144.981 38.768C144.575 39.1093 143.967 39.28 143.157 39.28C142.261 39.28 141.557 39.0347 141.045 38.544C140.533 38.032 140.383 37.36 140.597 36.528C141.237 34.1173 142.57 32.3573 144.597 31.248C146.645 30.1173 149.493 29.552 153.141 29.552H156.853C161.119 29.552 164.277 30.576 166.325 32.624C168.373 34.672 169.397 37.8293 169.397 42.096V59.312C169.397 61.104 168.501 62 166.708 62C164.917 62 164.021 61.104 164.021 59.312V57.872C161.738 60.624 158.41 62 154.037 62H150.453ZM150.453 56.624H154.037C155.615 56.624 157.098 56.4853 158.485 56.208C159.871 55.9093 161.055 55.376 162.037 54.608C163.039 53.84 163.701 52.7413 164.021 51.312V46.128H150.453C148.341 46.128 146.933 46.48 146.229 47.184C145.546 47.888 145.205 49.2853 145.205 51.376C145.205 53.488 145.546 54.896 146.229 55.6C146.933 56.2827 148.341 56.624 150.453 56.624ZM204.907 62C203.115 62 202.219 61.104 202.219 59.312V21.296C202.219 19.504 203.115 18.608 204.907 18.608C206.08 18.608 207.061 19.184 207.851 20.336L222.955 43.056L221.803 43.248L237.035 20.336C237.76 19.184 238.848 18.608 240.299 18.608C241.749 18.608 242.475 19.504 242.475 21.296V59.312C242.475 61.104 241.579 62 239.787 62C237.995 62 237.099 61.104 237.099 59.312V26.672L238.763 27.248L225.323 47.024C224.533 48.176 223.445 48.752 222.059 48.752C221.099 48.752 220.224 48.176 219.435 47.024L205.995 27.248L207.595 27.696V59.312C207.595 61.104 206.699 62 204.907 62ZM259.621 47.984V49.52C259.621 52.272 260.122 54.1493 261.125 55.152C262.128 56.1333 264.016 56.624 266.789 56.624H272.037C274.213 56.624 275.824 56.4213 276.869 56.016C277.914 55.6107 278.608 54.896 278.949 53.872C279.184 53.0613 279.504 52.4427 279.909 52.016C280.336 51.5893 280.976 51.376 281.829 51.376C282.725 51.376 283.408 51.6107 283.877 52.08C284.346 52.5493 284.496 53.232 284.325 54.128C283.856 56.7733 282.597 58.7467 280.549 60.048C278.501 61.3493 275.664 62 272.037 62H266.789C262.544 62 259.386 60.976 257.317 58.928C255.269 56.88 254.245 53.744 254.245 49.52V42.096C254.245 37.7653 255.269 34.5867 257.317 32.56C259.386 30.512 262.544 29.5093 266.789 29.552H272.037C276.304 29.552 279.461 30.576 281.509 32.624C283.557 34.6507 284.581 37.808 284.581 42.096V45.296C284.581 47.088 283.685 47.984 281.893 47.984H259.621ZM266.789 34.928C264.016 34.8853 262.128 35.3653 261.125 36.368C260.122 37.3707 259.621 39.28 259.621 42.096V42.608H279.205V42.096C279.205 39.3013 278.704 37.4133 277.701 36.432C276.72 35.4293 274.832 34.928 272.037 34.928H266.789Z" fill="white"/>
</svg>
