<svg width="48" height="48" viewBox="0 0 48 48" fill="none" xmlns="http://www.w3.org/2000/svg">
<path d="M36.454 43.1043L36.454 43.1042C35.2547 37.9015 31.1442 33.9515 26.8071 30.7803C25.0987 29.5311 23.3755 28.4166 21.7982 27.3966C21.378 27.1248 20.9681 26.8597 20.5716 26.6005C18.7129 25.3857 17.1071 24.2765 16.2045 23.2342L16.5825 22.9069L16.2045 23.2342C14.2882 21.0212 14.7404 18.5919 16.0018 17.2588L16.0022 17.2584C17.3557 15.8311 19.857 15.5888 21.7002 16.7916C22.4639 17.2885 23.5603 18.2051 24.5352 19.1067C25.4992 19.9982 26.411 20.936 26.7674 21.4794M36.454 43.1043L4.97417 26.1044C4.3638 26.3686 3.71076 26.3329 3.16013 26.2008C4.50881 25.3774 5.37562 23.9149 5.42538 22.3092L5.4266 22.2699L5.42166 22.2309C5.31987 21.4275 5.27411 20.5781 5.2924 19.6675L5.30751 18.915L4.60798 19.1928C4.29876 19.3156 3.93705 19.3791 3.51367 19.3263L3.51358 19.3263C2.56165 19.2079 1.79677 18.6599 1.25209 18.1037C1.20551 18.0561 1.16082 18.0088 1.11803 17.962C3.27538 18.0532 5.34531 16.9511 6.46704 15.0684L6.47735 15.0511L6.48624 15.033C6.69383 14.6106 6.92532 14.1982 7.17544 13.7994L7.50035 13.2815L6.92818 13.0659C6.81327 13.0226 6.70094 12.9742 6.58919 12.916L6.5884 12.9156C5.48542 12.3433 4.81095 11.3361 4.40724 10.4313C4.32682 10.2507 4.25812 10.076 4.1997 9.91224C6.3603 10.929 8.88612 10.8151 10.9387 9.64638L10.9684 9.62945L10.9955 9.60863C11.2361 9.42412 11.4774 9.25177 11.7196 9.08785L12.309 8.689L11.7339 8.26973C9.56849 6.69092 8.77497 4.65617 8.51887 3.00381C8.45231 2.5744 8.42227 2.17135 8.4143 1.81C10.3529 4.94282 13.7964 6.85547 17.4624 6.86562L17.4949 6.86571L17.5271 6.86159C19.697 6.58426 21.6215 6.89119 23.0062 7.26958C23.6976 7.45855 24.2515 7.66454 24.6302 7.8221C24.8195 7.90084 24.9647 7.96736 25.0611 8.01341C25.1093 8.03643 25.1453 8.05433 25.1685 8.06606L25.1935 8.0789L25.1987 8.08161L25.1989 8.08172L25.1992 8.08185L25.1993 8.08194L25.1994 8.082L25.6744 8.33554L25.8918 7.84254L25.8918 7.84248L25.8919 7.84235L25.8922 7.84163L25.8942 7.83704L25.9034 7.81677C25.9117 7.79846 25.9244 7.77079 25.9413 7.73495C25.975 7.66323 26.0252 7.55902 26.0897 7.43178C26.2193 7.17663 26.4051 6.83219 26.6311 6.47288C26.8566 6.11426 27.1159 5.75072 27.3923 5.44836C27.3844 5.67051 27.3838 5.91698 27.3958 6.18161C27.4462 7.28971 27.7193 8.74836 28.6347 10.0687L28.6348 10.0687C29.4793 11.2862 30.4094 12.0617 31.1351 12.5347C31.4412 12.7341 31.7109 12.8798 31.9227 12.9823C31.8472 13.2097 31.7664 13.5074 31.7153 13.8526C31.5974 14.6491 31.6341 15.7285 32.2924 16.7692C32.9225 17.769 33.9009 18.5336 34.6898 19.0392C35.0508 19.2706 35.3809 19.4533 35.635 19.5843C35.5965 19.6462 35.5545 19.7128 35.5095 19.783C35.2604 20.1714 34.9241 20.6605 34.5644 21.0859L34.5637 21.0868C34.3 21.4001 34.0079 21.6898 33.7312 21.9395C33.7635 21.7442 33.7883 21.5472 33.7965 21.3692C33.8026 21.2351 33.8005 21.0895 33.7758 20.9542C33.7547 20.8386 33.6993 20.6249 33.5122 20.4758L33.511 20.4749C33.467 20.4401 33.4247 20.4062 33.3835 20.3715L33.0332 20.0773L32.709 20.4001C32.5173 20.591 32.3395 20.7571 32.1782 20.9003C32.2281 20.5022 32.2569 20.0594 32.2097 19.6913L32.1797 19.4577L31.9805 19.3321C31.0654 18.755 29.7767 18.1359 27.7771 17.6049L26.8152 17.3494L27.1844 18.2736C27.4944 19.0494 28.0779 20.3762 28.5802 21.5011C28.8321 22.0652 29.0648 22.5814 29.2346 22.9565C29.3195 23.1441 29.3886 23.2964 29.4366 23.4019L29.4919 23.5236L29.5064 23.5553L29.5101 23.5635L29.511 23.5655L29.5113 23.5661L29.5113 23.5662L29.9663 23.3588L29.5113 23.5663L29.5307 23.6087L29.5575 23.6467C29.7498 23.9197 30.0113 24.1101 30.2743 24.2439C30.105 24.3085 29.9176 24.373 29.7129 24.4339L29.7122 24.4341C29.15 24.6025 28.7206 24.5869 28.4132 24.4851C28.1118 24.3853 27.896 24.1931 27.7609 23.939C27.6519 23.7308 27.5891 23.5118 27.5043 23.2163C27.4798 23.1307 27.4534 23.0388 27.4235 22.9388C27.2967 22.5144 27.1229 22.0206 26.7674 21.4794M36.454 43.1043C36.7794 44.5146 36.7895 45.775 36.6983 46.879M36.454 43.1043L36.6983 46.879M26.7674 21.4794C26.7673 21.4793 26.7673 21.4793 26.7673 21.4792L26.3494 21.7538L26.7675 21.4796C26.7675 21.4795 26.7674 21.4795 26.7674 21.4794ZM36.6983 46.879C30.9955 41.033 24.2523 37.2146 15.4772 36.6612C15.1683 36.3705 14.8631 36.0856 14.5639 35.8062C14.0057 35.2851 13.4682 34.7832 12.9656 34.2992L12.9652 34.2989C9.93939 31.3912 7.63687 28.9041 6.37197 25.8487L6.07024 25.1199L5.53988 25.7038C5.39968 25.8582 5.21734 25.9989 4.97447 26.1043L36.6983 46.879ZM32.9212 23.2219C32.9212 23.2219 33.1894 23.0418 33.5655 22.7381L33.1184 22.4548C33.0213 22.8798 32.9212 23.2219 32.9212 23.2219ZM34.1202 25.7364C34.1247 25.7394 34.1292 25.7424 34.1337 25.7454C34.5967 26.0518 35.227 26.39 35.9692 26.5814C35.9442 26.6743 35.92 26.7522 35.8986 26.815C35.8732 26.8899 35.8517 26.9435 35.8379 26.9759C35.8311 26.992 35.8261 27.0029 35.8235 27.0084L35.8224 27.0108L35.8218 27.012L35.8218 27.0121L35.8214 27.0128L35.6379 27.3713L35.9547 27.6265L36.2683 27.237C35.9547 27.6265 35.9549 27.6266 35.9551 27.6268L35.9556 27.6271L35.9567 27.628L35.9597 27.6305L35.9692 27.6379C35.9769 27.6439 35.9876 27.6521 36.001 27.6623C36.028 27.6828 36.0664 27.7111 36.1156 27.7459C36.2139 27.8154 36.3559 27.9105 36.5369 28.0186C36.8983 28.2342 37.4191 28.5035 38.0624 28.7213C39.1373 29.0851 40.5645 29.3077 42.1538 28.8867C41.9397 29.2504 41.6252 29.5547 41.288 29.802C41.0094 30.0062 40.7332 30.1578 40.5259 30.2582C40.4228 30.3082 40.3382 30.3448 40.2808 30.3684C40.2521 30.3802 40.2303 30.3887 40.2165 30.394L40.202 30.3995L40.2004 30.4001L40.2001 30.4002L40.1998 30.4003L40.1995 30.4004L40.1994 30.4004L39.5361 30.6364L39.9789 31.1851L40.368 30.8711C39.9789 31.1851 39.9791 31.1854 39.9793 31.1856L39.9798 31.1862L39.9809 31.1876L39.9839 31.1913L39.9929 31.202C40.0001 31.2106 40.0099 31.2221 40.0223 31.2363C40.0472 31.2645 40.0824 31.3034 40.128 31.3508C40.2192 31.4455 40.3522 31.5745 40.5272 31.7209C40.8768 32.0135 41.3964 32.3782 42.0859 32.6763C43.1199 33.1233 44.5136 33.4107 46.2517 33.1092C45.2947 33.7792 44.2535 34.0481 43.2206 34.0715C41.6517 34.1071 40.0865 33.574 38.8814 32.957C36.9727 31.9796 34.5242 29.2225 34.1202 25.7364ZM27.7108 12.4537L27.4136 12.158L27.0706 12.3991L25.5368 13.4772L24.7501 14.0303L25.6547 14.3566L29.761 15.8378L30.2833 15.013L27.7108 12.4537Z" fill="#D0B110" stroke="#857109"/>
</svg>
