<svg width="48" height="48" viewBox="0 0 48 48" fill="none" xmlns="http://www.w3.org/2000/svg">
<path d="M36.9413 42.9919C34.4569 32.2144 19.9744 26.8238 16.5825 22.9069C14.8388 20.8931 15.2756 18.7538 16.365 17.6025C17.535 16.3688 19.7644 16.125 21.4275 17.2106C22.8825 18.1575 25.7137 20.7844 26.3494 21.7538C26.985 22.7213 26.9775 23.5219 27.3187 24.1725C27.7069 24.9038 28.5844 25.2938 29.8556 24.9131C31.0331 24.5625 31.6837 24.0975 31.6837 24.0975C31.6837 24.0975 30.4538 24.0506 29.9663 23.3588C29.9663 23.3588 28.26 19.6181 27.6488 18.0881C29.6044 18.6075 30.8456 19.2075 31.7137 19.755C31.8206 20.5875 31.4663 22.0219 31.4513 22.0856C31.4906 22.0631 32.1225 21.69 33.0619 20.7544C33.1088 20.7938 33.1556 20.8313 33.2006 20.8669C33.5325 21.1313 32.9213 23.2219 32.9213 23.2219C32.9213 23.2219 34.0688 22.4513 34.9463 21.4088C35.7056 20.5106 36.345 19.3706 36.345 19.3706C36.345 19.3706 33.8606 18.3206 32.715 16.5019C31.5656 14.685 32.5669 12.7125 32.5669 12.7125C32.5669 12.7125 30.6506 12.0975 29.0456 9.78375C27.3581 7.35 28.0106 4.35938 28.0106 4.35938C26.6381 4.91063 25.4344 7.64063 25.4344 7.64063C25.4344 7.64063 21.9675 5.79 17.4637 6.36563C13.4006 6.35438 9.62438 3.89063 8.05688 0C8.05688 0 6.84375 5.32313 11.4394 8.67375C11.19 8.8425 10.9406 9.02063 10.6913 9.21188C8.44875 10.4888 5.60062 10.4138 3.40688 8.87625C3.40688 8.87625 3.52312 9.675 3.95062 10.635C4.37812 11.5931 5.115 12.7144 6.35812 13.3594C6.49125 13.4288 6.6225 13.485 6.75187 13.5338C6.49312 13.9463 6.25313 14.3738 6.0375 14.8125C4.81313 16.8675 2.355 17.9063 0 17.2913C0 17.2913 1.23563 19.5469 3.45187 19.8225C3.96375 19.8863 4.41 19.8094 4.7925 19.6575C4.77375 20.5913 4.82063 21.465 4.92563 22.2938C4.86938 24.1088 3.645 25.7194 1.86 26.2294H1.85812C1.85812 26.2294 3.57938 27.2531 5.17313 26.5631C5.48438 26.4281 5.72438 26.2444 5.91 26.04C7.21875 29.2013 9.5925 31.7513 12.6188 34.6594C13.4306 35.4413 14.3419 36.2775 15.2662 37.1494C24.36 37.6744 31.245 41.745 37.0763 48C37.26 46.6425 37.395 44.9588 36.9413 42.9919ZM27.3581 12.8081L29.9306 15.3675L25.8244 13.8863L27.3581 12.8081ZM33.5631 24.6557C33.5631 24.6557 34.8204 25.9374 36.564 26.1923C36.4462 26.8894 36.2683 27.237 36.2683 27.237C36.2683 27.237 39.2608 29.6464 42.9261 28.0943C42.7569 30.021 40.368 30.8711 40.368 30.8711C40.368 30.8711 42.9343 34.0513 48 32.1C45.2518 35.6766 41.1489 34.6798 38.6535 33.402C36.4106 32.2536 33.5228 28.8613 33.5631 24.6557Z" fill="white"/>
</svg>
